<?xml version="1.0" standalone="no"?>
<!DOCTYPE svg PUBLIC "-//W3C//DTD SVG 20010904//EN"
 "http://www.w3.org/TR/2001/REC-SVG-20010904/DTD/svg10.dtd">
<svg version="1.0" xmlns="http://www.w3.org/2000/svg"
 width="4096.000000pt" height="4096.000000pt" viewBox="0 0 4096.000000 4096.000000"
 preserveAspectRatio="xMidYMid meet">

<g transform="translate(0.000000,4096.000000) scale(0.100000,-0.100000)"
fill="#000000" stroke="none">
<path d="M0 20480 l0 -20480 20480 0 20480 0 0 20480 0 20480 -20480 0 -20480
0 0 -20480z m21172 12099 c12 -6 114 -13 251 -16 155 -3 249 -9 284 -19 31 -8
98 -14 171 -14 81 0 133 -5 162 -15 25 -9 78 -15 129 -15 61 0 104 -6 144 -20
34 -12 82 -20 121 -20 35 0 80 -7 99 -15 20 -8 65 -15 99 -15 36 -1 74 -7 88
-15 14 -8 52 -14 85 -15 39 0 69 -6 84 -16 13 -9 46 -18 75 -19 28 -1 65 -9
83 -18 18 -9 51 -17 75 -17 24 0 52 -7 62 -15 11 -8 40 -15 65 -15 25 -1 57
-7 71 -15 14 -8 42 -14 63 -15 20 0 54 -9 74 -20 21 -11 54 -20 73 -20 19 0
44 -7 54 -15 11 -8 36 -15 56 -15 20 0 45 -7 56 -15 10 -8 35 -15 55 -15 19 0
44 -7 55 -15 10 -8 35 -15 54 -15 19 0 49 -9 65 -20 17 -11 44 -20 61 -20 17
0 37 -7 44 -15 7 -8 27 -15 44 -15 18 0 41 -7 52 -15 10 -8 30 -15 44 -15 14
0 34 -7 44 -15 11 -8 31 -15 45 -15 14 0 40 -9 56 -20 17 -11 41 -20 55 -20
14 0 34 -7 44 -15 11 -8 32 -15 47 -15 14 0 32 -7 39 -15 7 -8 25 -15 39 -15
15 0 36 -7 47 -15 10 -8 26 -15 34 -15 8 0 32 -9 53 -20 20 -11 45 -20 56 -20
10 0 24 -7 31 -15 7 -8 23 -15 35 -15 12 0 28 -7 35 -15 7 -8 22 -15 34 -15
12 0 32 -7 44 -16 13 -9 34 -17 47 -18 13 -2 31 -10 40 -20 9 -9 27 -16 39
-16 13 0 29 -7 36 -15 7 -8 23 -15 35 -15 12 0 28 -7 35 -15 7 -8 23 -15 36
-15 12 0 29 -7 38 -15 8 -8 21 -15 28 -16 7 0 36 -14 63 -30 28 -16 57 -32 65
-35 57 -23 110 -50 110 -56 0 -5 7 -8 16 -8 13 0 37 -11 114 -51 8 -5 39 -20
69 -35 30 -14 61 -33 69 -40 7 -8 22 -14 32 -14 10 0 20 -7 24 -15 3 -8 14
-15 25 -15 11 0 23 -4 26 -10 3 -5 27 -20 53 -33 92 -47 117 -62 125 -74 4 -7
19 -13 31 -13 13 0 26 -6 29 -13 2 -7 24 -23 48 -36 88 -46 210 -121 227 -138
7 -7 18 -13 24 -13 5 0 27 -13 48 -30 21 -16 45 -30 53 -30 9 0 20 -6 24 -13
4 -8 24 -22 43 -33 19 -10 56 -36 83 -56 27 -21 52 -38 56 -38 4 0 20 -13 37
-29 16 -15 45 -37 65 -48 20 -10 44 -27 54 -37 9 -9 42 -34 72 -54 31 -20 74
-49 97 -65 22 -15 55 -40 71 -56 17 -15 48 -39 70 -53 22 -14 51 -36 65 -50
33 -31 106 -88 114 -88 4 0 37 -29 74 -65 36 -36 71 -65 78 -65 6 0 44 -30 85
-67 41 -38 104 -93 139 -123 146 -123 751 -726 841 -838 53 -66 92 -110 174
-196 17 -18 42 -50 57 -71 16 -22 46 -60 69 -84 22 -24 57 -66 76 -94 19 -27
47 -61 61 -76 15 -14 40 -45 55 -67 15 -23 42 -57 58 -75 17 -19 46 -57 65
-85 19 -28 45 -63 59 -78 14 -15 25 -29 25 -32 0 -7 43 -68 53 -75 10 -7 31
-42 46 -76 6 -13 14 -23 18 -23 5 0 19 -20 33 -45 14 -25 28 -45 33 -45 4 0
11 -8 14 -17 8 -23 46 -77 56 -81 4 -2 7 -10 7 -18 0 -8 7 -17 15 -20 8 -3 17
-16 21 -27 4 -12 20 -38 35 -58 16 -20 29 -40 29 -43 0 -8 38 -63 58 -84 6 -7
12 -20 12 -28 0 -8 7 -17 15 -20 8 -4 15 -13 15 -21 0 -8 16 -35 35 -60 19
-25 35 -50 35 -55 0 -6 14 -27 30 -48 17 -21 30 -45 30 -54 0 -9 7 -19 15 -22
8 -4 15 -14 15 -24 0 -9 9 -27 20 -40 11 -13 20 -27 20 -33 0 -5 14 -29 30
-54 17 -24 30 -51 30 -59 0 -7 4 -14 9 -14 5 0 23 -28 41 -62 17 -35 35 -70
40 -78 5 -8 11 -22 14 -30 4 -8 15 -28 26 -45 11 -16 22 -37 26 -45 3 -8 10
-22 15 -30 5 -8 16 -28 24 -45 9 -16 19 -37 24 -45 5 -8 12 -22 15 -30 3 -8
10 -23 16 -32 24 -42 30 -55 44 -84 8 -17 19 -35 25 -38 6 -4 11 -18 11 -31 0
-12 7 -25 15 -29 8 -3 15 -16 15 -29 0 -14 7 -30 15 -37 8 -7 15 -23 15 -35 0
-12 7 -28 15 -35 8 -7 15 -17 15 -23 0 -5 9 -31 21 -56 38 -82 48 -106 54
-128 3 -13 11 -23 16 -23 5 0 9 -10 9 -22 0 -13 9 -36 20 -53 11 -16 20 -37
20 -46 0 -9 7 -22 15 -29 8 -7 15 -26 15 -42 0 -16 6 -31 15 -34 8 -4 15 -18
15 -34 0 -15 7 -33 15 -40 8 -7 15 -23 15 -35 0 -12 9 -34 20 -48 11 -14 20
-36 20 -49 0 -12 7 -32 15 -42 8 -11 15 -30 15 -42 0 -12 7 -27 15 -34 8 -7
15 -27 15 -45 0 -18 7 -38 15 -45 8 -7 15 -24 15 -39 0 -14 9 -39 20 -56 11
-16 20 -42 20 -56 0 -14 7 -34 15 -45 8 -10 15 -31 15 -45 0 -15 7 -32 15 -39
8 -7 15 -27 15 -44 0 -18 7 -41 15 -52 8 -10 15 -30 15 -44 0 -14 9 -45 20
-69 11 -24 20 -55 20 -70 0 -15 7 -36 15 -47 8 -10 15 -35 15 -55 0 -20 7 -42
15 -49 8 -7 15 -27 15 -45 0 -18 9 -52 20 -76 11 -24 20 -56 20 -70 0 -14 7
-34 15 -45 8 -10 15 -40 15 -65 0 -25 7 -54 15 -65 8 -10 15 -40 15 -65 0 -25
7 -54 15 -65 8 -10 15 -36 15 -56 0 -21 9 -60 20 -88 11 -28 20 -70 20 -93 1
-23 7 -53 15 -67 8 -14 15 -47 15 -75 0 -27 7 -61 15 -75 8 -14 14 -44 15 -66
0 -23 7 -61 15 -84 8 -23 15 -61 15 -84 0 -22 9 -74 20 -115 11 -41 20 -96 20
-121 0 -26 7 -69 15 -96 8 -27 15 -84 15 -127 0 -46 6 -92 14 -110 9 -20 16
-83 19 -167 3 -74 10 -155 16 -180 6 -25 15 -155 21 -290 5 -135 14 -306 19
-380 12 -181 12 -576 0 -675 -6 -44 -15 -213 -20 -375 -6 -162 -14 -303 -20
-312 -5 -10 -12 -87 -15 -170 -4 -84 -11 -158 -15 -164 -5 -6 -13 -71 -17
-145 -5 -74 -14 -145 -21 -156 -6 -12 -11 -53 -11 -91 0 -42 -8 -94 -20 -132
-11 -34 -20 -82 -20 -105 0 -23 -7 -62 -15 -85 -8 -23 -15 -65 -15 -92 0 -27
-7 -65 -15 -85 -8 -19 -15 -56 -15 -82 -1 -25 -7 -57 -15 -71 -8 -14 -14 -43
-15 -65 0 -23 -9 -66 -20 -98 -11 -31 -20 -74 -20 -95 0 -21 -5 -43 -10 -48
-6 -6 -13 -35 -17 -65 -3 -30 -12 -66 -19 -81 -8 -15 -14 -42 -14 -60 -1 -18
-7 -44 -15 -58 -8 -14 -14 -39 -15 -57 0 -18 -9 -55 -20 -83 -11 -28 -20 -63
-20 -78 -1 -15 -7 -38 -15 -52 -8 -14 -15 -41 -15 -60 0 -19 -7 -44 -15 -54
-8 -11 -15 -33 -15 -48 0 -16 -6 -41 -14 -56 -8 -15 -18 -46 -22 -67 -4 -22
-13 -49 -20 -60 -8 -11 -14 -33 -14 -50 0 -16 -7 -39 -15 -49 -8 -11 -15 -32
-15 -47 0 -14 -7 -32 -15 -39 -8 -7 -15 -23 -15 -36 0 -13 -9 -41 -20 -61 -11
-21 -20 -47 -20 -59 0 -12 -7 -27 -15 -34 -8 -7 -15 -24 -15 -39 0 -14 -7 -35
-15 -45 -8 -11 -15 -32 -15 -46 0 -14 -7 -35 -15 -46 -8 -10 -15 -27 -15 -37
0 -9 -9 -34 -20 -54 -11 -21 -20 -45 -20 -54 0 -9 -7 -22 -15 -29 -8 -7 -15
-26 -15 -42 0 -16 -6 -31 -15 -34 -8 -4 -15 -18 -15 -34 0 -15 -7 -33 -15 -40
-8 -7 -15 -20 -15 -29 0 -9 -9 -29 -20 -46 -11 -16 -20 -40 -20 -51 0 -12 -7
-27 -15 -34 -8 -7 -15 -21 -15 -30 0 -10 -6 -31 -14 -47 -7 -15 -20 -44 -29
-63 -8 -19 -24 -55 -35 -80 -11 -25 -23 -52 -26 -60 -3 -8 -10 -22 -15 -30 -5
-8 -12 -22 -15 -30 -3 -8 -10 -22 -15 -30 -5 -8 -28 -53 -51 -100 -23 -47 -45
-92 -50 -100 -5 -8 -11 -22 -14 -30 -3 -8 -10 -22 -14 -30 -5 -8 -20 -37 -33
-65 -13 -27 -30 -56 -36 -63 -7 -7 -13 -22 -13 -33 0 -10 -4 -19 -9 -19 -6 0
-16 -11 -23 -25 -7 -13 -26 -50 -43 -82 -16 -32 -36 -64 -42 -71 -7 -7 -13
-22 -13 -32 0 -10 -7 -20 -15 -24 -8 -3 -15 -12 -15 -21 0 -9 -8 -28 -19 -43
-44 -64 -81 -124 -81 -132 0 -8 -57 -99 -85 -135 -8 -10 -15 -23 -15 -28 0 -5
-13 -26 -30 -47 -16 -21 -30 -42 -30 -48 0 -5 -7 -16 -16 -23 -9 -7 -20 -22
-25 -34 -18 -38 -78 -130 -124 -191 -19 -25 -35 -50 -35 -55 0 -5 -13 -22 -29
-38 -15 -15 -40 -49 -56 -74 -15 -26 -30 -47 -34 -47 -3 0 -22 -24 -41 -52
-31 -48 -165 -226 -179 -238 -3 -3 -19 -24 -35 -48 -16 -23 -52 -66 -80 -96
-28 -29 -64 -72 -81 -96 -16 -24 -47 -62 -69 -84 -21 -23 -66 -75 -99 -116
-76 -95 -170 -193 -542 -564 -165 -164 -349 -340 -410 -391 -60 -51 -137 -118
-169 -149 -33 -31 -64 -56 -70 -56 -6 0 -42 -30 -81 -65 -38 -36 -74 -65 -80
-65 -6 0 -25 -13 -42 -28 -57 -53 -120 -102 -130 -102 -5 0 -20 -12 -34 -26
-13 -15 -54 -46 -91 -71 -38 -25 -68 -48 -68 -52 0 -3 -20 -17 -45 -31 -25
-14 -45 -28 -45 -31 0 -4 -18 -17 -41 -28 -23 -12 -58 -35 -78 -50 -20 -16
-46 -32 -58 -36 -13 -3 -23 -11 -23 -16 0 -5 -10 -14 -22 -20 -37 -16 -63 -33
-82 -52 -10 -9 -23 -17 -29 -17 -7 0 -27 -13 -45 -30 -18 -16 -42 -30 -53 -30
-10 0 -19 -4 -19 -9 0 -5 -25 -21 -55 -36 -30 -16 -55 -32 -55 -36 0 -4 -12
-12 -27 -18 -16 -6 -55 -27 -88 -46 -33 -19 -69 -39 -80 -44 -12 -5 -27 -16
-34 -25 -7 -9 -20 -16 -29 -16 -8 0 -23 -6 -31 -14 -9 -7 -47 -31 -86 -51 -38
-21 -88 -49 -110 -62 -38 -21 -46 -25 -77 -38 -7 -3 -20 -9 -28 -14 -44 -26
-167 -81 -182 -81 -9 0 -19 -4 -22 -9 -4 -5 -25 -18 -49 -29 -77 -37 -152 -73
-167 -81 -8 -4 -33 -16 -55 -25 -22 -10 -53 -24 -68 -32 -16 -8 -36 -14 -45
-14 -9 0 -30 -9 -47 -20 -16 -11 -38 -20 -47 -20 -9 0 -29 -6 -45 -14 -15 -7
-46 -21 -68 -31 -22 -9 -57 -25 -77 -36 -20 -10 -45 -19 -55 -19 -10 0 -27 -7
-37 -15 -11 -8 -29 -15 -40 -15 -12 0 -30 -7 -40 -15 -11 -8 -34 -15 -52 -15
-17 0 -37 -6 -43 -14 -6 -8 -26 -16 -44 -19 -37 -6 -119 -34 -159 -53 -14 -8
-37 -14 -50 -14 -12 0 -32 -7 -42 -15 -11 -8 -30 -15 -43 -15 -13 0 -36 -6
-51 -14 -15 -7 -45 -17 -66 -20 -22 -4 -49 -14 -60 -22 -11 -8 -37 -14 -56
-14 -20 0 -41 -5 -48 -12 -6 -6 -30 -14 -54 -18 -24 -5 -56 -12 -73 -18 -35
-12 -101 -29 -165 -43 -25 -5 -62 -16 -83 -24 -20 -8 -54 -15 -75 -15 -20 -1
-48 -7 -62 -15 -14 -8 -41 -14 -60 -15 -19 0 -55 -6 -80 -14 -86 -28 -208 -56
-241 -56 -19 0 -56 -7 -83 -15 -27 -8 -73 -15 -103 -15 -29 0 -70 -7 -90 -15
-19 -8 -54 -15 -77 -15 -23 0 -66 -6 -96 -14 -30 -7 -91 -16 -135 -20 -44 -3
-110 -12 -145 -20 -36 -7 -99 -14 -140 -15 -41 -1 -101 -9 -135 -16 -33 -8
-107 -15 -165 -15 -58 0 -160 -7 -225 -15 -146 -18 -1187 -22 -1289 -5 -33 6
-144 15 -246 20 -102 5 -208 13 -237 19 -29 5 -83 11 -120 12 -37 1 -93 8
-123 15 -30 7 -95 16 -145 19 -49 4 -112 13 -139 21 -27 8 -71 14 -97 14 -25
0 -66 7 -89 15 -23 8 -66 15 -96 15 -29 0 -65 5 -81 11 -15 7 -64 18 -108 25
-103 17 -178 32 -239 50 -26 8 -65 14 -85 14 -20 0 -45 7 -55 15 -11 8 -37 15
-58 15 -22 0 -52 7 -68 15 -16 9 -51 18 -77 22 -27 3 -60 12 -75 19 -15 8 -40
14 -56 14 -17 0 -43 7 -58 15 -16 8 -42 15 -59 15 -16 1 -41 7 -55 15 -14 8
-38 15 -55 15 -16 0 -48 9 -70 20 -22 11 -51 20 -65 20 -14 0 -34 7 -44 15
-11 8 -32 15 -46 15 -14 0 -35 7 -46 15 -10 8 -31 15 -46 15 -14 0 -39 6 -55
14 -49 25 -138 56 -158 56 -11 0 -29 7 -39 15 -11 8 -29 15 -41 15 -12 0 -30
7 -41 15 -10 8 -30 15 -44 15 -14 0 -34 7 -44 15 -11 8 -27 15 -36 15 -8 0
-32 9 -53 20 -20 11 -45 20 -54 20 -10 0 -27 7 -37 15 -11 8 -30 15 -42 15
-12 0 -27 7 -34 15 -7 8 -19 15 -26 15 -8 0 -31 9 -51 20 -21 11 -45 20 -54
20 -9 0 -22 7 -29 15 -7 8 -23 15 -35 15 -12 0 -28 7 -35 15 -7 8 -19 15 -28
15 -15 0 -80 27 -134 56 -14 8 -31 14 -38 14 -6 0 -18 7 -26 15 -9 8 -24 15
-33 15 -10 0 -24 7 -31 15 -7 8 -20 15 -30 15 -10 0 -23 7 -30 15 -7 8 -20 15
-30 15 -9 0 -27 9 -40 20 -13 11 -31 20 -40 20 -10 0 -23 7 -30 15 -7 8 -20
15 -30 15 -10 0 -23 7 -30 15 -7 8 -23 15 -37 15 -13 0 -26 7 -29 15 -4 8 -14
15 -24 15 -9 0 -27 9 -40 20 -13 11 -32 20 -42 20 -10 0 -21 7 -24 15 -4 8
-17 15 -30 15 -12 0 -27 6 -31 13 -4 6 -42 30 -83 51 -41 21 -82 45 -91 52 -8
8 -23 14 -32 14 -9 0 -20 6 -24 13 -4 6 -21 19 -38 28 -90 47 -121 65 -128 76
-4 7 -14 13 -21 13 -7 0 -31 13 -53 29 -22 16 -49 32 -61 35 -12 4 -22 12 -22
17 0 5 -10 14 -22 19 -13 6 -36 19 -53 30 -16 11 -44 27 -61 35 -17 7 -42 25
-55 39 -13 14 -30 26 -38 26 -7 0 -32 15 -54 33 -23 17 -49 37 -59 42 -23 13
-121 82 -176 123 -24 17 -48 32 -53 32 -5 0 -22 12 -37 28 -15 15 -45 38 -67
52 -22 14 -51 36 -65 50 -14 14 -41 33 -60 44 -19 10 -39 24 -45 30 -17 20
-102 86 -109 86 -4 0 -33 23 -64 50 -31 28 -61 50 -68 50 -6 0 -34 22 -60 48
-27 26 -78 70 -114 97 -36 27 -86 70 -112 96 -25 26 -77 71 -115 100 -142 109
-923 890 -1047 1047 -32 41 -78 93 -102 118 -24 24 -44 47 -44 50 0 9 -63 88
-104 131 -36 38 -45 49 -68 84 -9 15 -31 42 -48 60 -17 19 -47 58 -67 88 -20
29 -44 61 -54 70 -11 8 -19 19 -19 24 0 10 -36 60 -72 101 -16 17 -28 35 -28
41 0 6 -14 25 -30 43 -17 18 -30 37 -30 41 0 5 -15 28 -32 52 -18 25 -37 52
-43 61 -34 56 -96 145 -109 159 -9 9 -16 21 -16 28 0 10 -34 66 -50 81 -3 3
-11 16 -18 30 -7 14 -21 39 -32 55 -11 17 -24 39 -30 50 -23 43 -37 66 -53 83
-10 10 -17 26 -17 35 0 9 -4 18 -9 22 -6 3 -20 27 -33 53 -13 26 -26 49 -31
50 -4 2 -14 18 -22 35 -8 18 -19 40 -25 50 -36 61 -140 272 -140 283 0 6 -7
17 -15 24 -8 7 -15 20 -15 30 0 10 -7 23 -15 30 -8 7 -15 20 -15 30 0 9 -9 27
-20 40 -11 13 -20 31 -20 40 0 10 -7 23 -15 30 -8 7 -15 23 -15 37 0 13 -7 26
-15 29 -8 4 -15 15 -15 26 0 20 -5 32 -48 115 -12 23 -22 49 -22 58 0 9 -7 23
-15 31 -8 9 -15 25 -15 37 0 12 -7 31 -15 41 -8 11 -15 27 -15 37 0 9 -6 22
-14 28 -7 6 -16 25 -20 42 -3 17 -13 37 -21 45 -8 9 -15 28 -15 43 0 16 -7 34
-15 41 -8 7 -15 24 -15 39 0 14 -7 35 -15 45 -8 11 -15 29 -15 41 0 12 -7 30
-15 41 -8 10 -15 26 -15 34 0 8 -9 32 -20 53 -11 20 -20 47 -20 59 0 13 -7 32
-15 42 -8 11 -15 29 -15 41 0 12 -7 30 -15 41 -8 10 -15 30 -15 44 0 14 -9 43
-20 65 -11 22 -19 51 -20 65 0 15 -5 31 -12 38 -6 6 -14 30 -18 54 -5 24 -13
59 -20 78 -27 79 -32 97 -41 139 -5 25 -16 55 -24 67 -8 13 -15 38 -15 56 -1
18 -7 44 -15 58 -8 14 -14 43 -15 65 0 22 -7 53 -15 69 -8 15 -15 43 -15 62 0
18 -6 51 -14 71 -8 21 -17 60 -21 86 -3 26 -13 63 -21 82 -8 19 -14 50 -14 68
0 19 -7 54 -15 77 -8 23 -15 59 -15 80 0 21 -6 60 -14 86 -18 62 -34 148 -47
249 -5 44 -16 100 -24 124 -8 25 -15 70 -15 100 0 31 -7 81 -15 111 -8 30 -15
82 -15 115 -1 33 -6 80 -11 105 -6 25 -14 106 -19 180 -4 75 -12 151 -18 170
-6 19 -13 126 -17 238 -3 120 -11 215 -18 230 -16 36 -22 1077 -8 1286 6 83
15 228 21 321 6 94 18 218 26 277 8 59 14 135 14 170 0 35 7 94 15 133 8 38
15 96 15 127 0 31 5 69 11 85 6 15 15 74 19 130 5 56 16 125 24 154 9 29 16
69 16 90 0 20 7 53 15 72 8 20 15 52 15 70 0 19 7 54 15 77 8 23 15 57 15 75
0 18 7 49 15 68 8 20 15 55 15 77 0 23 6 53 14 68 8 15 17 46 21 67 4 22 13
57 21 78 8 20 14 52 14 70 0 17 7 41 15 51 8 11 15 37 15 58 0 21 7 55 15 75
8 19 15 43 15 52 0 9 9 33 20 54 11 20 20 45 20 56 0 10 7 24 15 31 8 7 15 20
15 30 0 10 7 23 15 30 8 7 15 21 15 32 0 10 7 21 15 24 8 4 15 11 15 18 0 6
16 33 35 60 19 27 35 55 35 62 0 7 6 17 13 21 7 4 33 33 56 63 66 84 104 124
163 170 29 23 75 62 101 86 27 24 55 44 63 44 8 0 28 14 44 30 16 17 37 30 47
30 10 0 26 9 36 20 9 11 24 20 33 20 8 0 22 7 30 15 9 8 26 15 39 15 12 0 25
7 29 15 3 8 18 15 34 15 15 0 37 7 48 15 10 8 33 15 49 15 17 0 39 6 50 14 11
7 48 16 83 19 34 4 76 14 92 22 24 12 76 15 285 15 236 0 259 -2 295 -20 22
-11 54 -20 72 -20 18 0 42 -7 52 -15 11 -8 34 -15 52 -15 17 0 37 -7 44 -15 7
-8 27 -15 45 -15 18 0 38 -7 45 -15 7 -8 25 -15 41 -15 15 0 34 -7 43 -15 8
-8 22 -15 30 -15 9 0 24 -9 33 -20 10 -11 27 -20 40 -20 12 0 26 -6 30 -12 4
-7 29 -24 56 -38 26 -13 47 -28 47 -31 0 -4 10 -9 23 -13 12 -3 33 -16 47 -29
14 -13 57 -50 95 -82 71 -60 154 -144 155 -157 0 -4 12 -20 26 -35 36 -38 104
-141 104 -157 0 -8 7 -19 15 -26 8 -7 15 -18 15 -25 0 -7 6 -18 14 -24 8 -7
18 -25 21 -41 3 -16 13 -34 21 -41 8 -6 14 -22 14 -34 0 -12 7 -28 15 -35 8
-7 15 -25 15 -39 0 -15 7 -36 15 -47 8 -10 15 -34 15 -52 0 -17 9 -48 19 -67
13 -25 19 -58 20 -111 1 -51 6 -83 18 -100 13 -21 15 -44 10 -140 -3 -63 -10
-121 -16 -128 -6 -7 -11 -50 -12 -97 -1 -53 -7 -92 -16 -107 -8 -13 -17 -46
-20 -75 -3 -29 -12 -62 -19 -74 -8 -12 -14 -40 -14 -61 0 -23 -6 -45 -15 -52
-10 -8 -15 -30 -15 -63 0 -32 -6 -57 -16 -68 -10 -11 -18 -43 -21 -86 -3 -37
-11 -82 -19 -100 -8 -17 -14 -60 -14 -95 -1 -39 -6 -70 -15 -82 -10 -13 -15
-44 -15 -88 0 -38 -7 -85 -15 -105 -10 -23 -15 -69 -15 -130 0 -66 -5 -103
-16 -125 -11 -22 -18 -80 -25 -212 -5 -99 -13 -226 -18 -281 -12 -130 -12
-782 0 -905 5 -52 13 -171 18 -265 7 -120 14 -179 25 -200 11 -21 16 -58 16
-118 0 -55 6 -101 15 -124 8 -20 15 -67 15 -107 1 -46 6 -78 15 -90 10 -13 15
-43 15 -84 0 -35 6 -78 14 -95 8 -18 16 -60 19 -94 3 -34 12 -72 21 -85 10
-13 16 -43 16 -74 0 -34 5 -56 15 -64 10 -8 15 -30 15 -64 0 -30 6 -60 15 -72
8 -10 15 -36 15 -58 0 -21 8 -53 19 -70 10 -17 19 -46 19 -63 0 -18 8 -43 16
-55 9 -12 16 -39 16 -59 0 -20 7 -42 15 -49 8 -7 15 -29 15 -49 0 -21 7 -46
15 -57 8 -10 15 -30 15 -44 0 -14 9 -38 20 -55 11 -16 20 -44 20 -61 0 -17 7
-37 15 -44 8 -7 15 -25 15 -41 0 -15 7 -34 15 -43 8 -8 15 -28 15 -43 0 -16 7
-38 15 -49 8 -10 15 -28 15 -39 0 -11 9 -33 20 -50 11 -16 20 -40 20 -51 0
-12 7 -27 15 -34 8 -7 15 -25 15 -40 0 -15 7 -33 15 -40 8 -7 15 -23 15 -36 0
-12 6 -29 14 -36 7 -8 17 -28 20 -45 4 -17 14 -34 22 -37 8 -3 14 -16 14 -28
0 -13 7 -32 15 -42 8 -11 15 -27 15 -37 0 -9 7 -22 15 -29 8 -7 15 -23 15 -36
0 -12 5 -26 10 -29 6 -4 31 -48 55 -98 42 -84 51 -102 77 -147 5 -8 15 -29 23
-47 8 -17 19 -34 25 -38 5 -3 10 -15 10 -26 0 -11 7 -22 15 -25 8 -4 15 -17
15 -29 0 -13 5 -27 10 -30 6 -4 17 -21 25 -38 17 -36 34 -65 53 -85 6 -7 12
-20 12 -27 0 -8 6 -18 13 -22 6 -4 23 -29 37 -55 13 -27 28 -48 32 -48 3 0 10
-10 14 -22 4 -13 20 -39 35 -59 16 -20 29 -40 29 -44 0 -4 15 -25 33 -48 19
-23 37 -49 40 -57 4 -8 31 -49 62 -90 30 -41 71 -99 91 -129 20 -29 45 -61 55
-70 11 -8 19 -19 19 -24 0 -12 57 -85 97 -124 18 -18 33 -36 33 -39 0 -11 62
-87 126 -154 34 -36 88 -96 120 -135 113 -135 359 -383 484 -486 41 -34 111
-96 155 -138 44 -42 106 -94 138 -115 31 -21 57 -41 57 -46 0 -4 26 -25 58
-46 31 -21 65 -47 75 -56 10 -10 41 -33 70 -51 28 -19 64 -46 79 -60 15 -14
35 -28 45 -31 10 -4 40 -26 68 -51 27 -25 55 -45 62 -45 6 0 27 -13 45 -30 18
-16 38 -30 45 -30 7 0 21 -8 31 -17 10 -10 39 -29 65 -43 26 -13 47 -28 47
-32 0 -5 6 -8 13 -8 6 0 34 -16 61 -35 27 -19 55 -35 62 -35 7 0 17 -6 21 -12
4 -7 22 -20 38 -29 75 -39 120 -65 133 -76 7 -7 22 -13 33 -13 11 0 22 -7 25
-15 4 -8 14 -15 24 -15 10 0 25 -7 34 -15 8 -8 25 -19 38 -25 13 -5 30 -14 38
-19 8 -5 22 -12 30 -15 8 -4 53 -26 99 -51 46 -25 89 -45 96 -45 7 0 18 -7 25
-15 7 -8 23 -15 35 -15 12 0 28 -7 35 -15 7 -8 23 -15 35 -15 12 0 28 -7 35
-15 7 -8 20 -15 29 -15 9 0 30 -9 46 -20 17 -11 37 -20 46 -20 9 0 22 -7 29
-15 7 -8 23 -15 36 -15 12 0 29 -7 38 -15 8 -8 24 -15 35 -15 11 0 26 -7 35
-15 8 -8 30 -18 48 -22 18 -3 42 -12 53 -20 11 -7 29 -13 40 -13 11 0 29 -7
39 -15 11 -8 32 -15 46 -15 14 0 35 -7 46 -15 10 -8 30 -15 44 -15 14 0 39 -9
55 -20 17 -11 41 -20 55 -20 14 0 34 -7 44 -15 11 -8 34 -15 52 -15 17 0 37
-7 44 -15 7 -8 28 -15 47 -15 18 0 44 -7 58 -16 13 -8 38 -16 57 -16 18 0 47
-9 64 -19 17 -11 47 -19 65 -19 19 -1 45 -7 59 -15 14 -8 41 -14 61 -15 19 0
44 -7 55 -15 11 -8 42 -14 74 -15 35 0 64 -6 79 -17 15 -10 48 -17 85 -19 34
-1 75 -10 91 -18 19 -10 56 -16 100 -16 42 -1 80 -7 95 -15 15 -9 54 -14 98
-15 41 0 88 -6 109 -15 24 -10 71 -15 148 -15 83 0 124 -5 156 -17 40 -16 100
-18 674 -18 566 0 637 2 702 18 40 9 112 17 160 17 57 1 97 6 113 15 16 9 56
15 115 15 59 0 99 6 115 15 14 8 53 14 90 15 40 0 76 6 95 16 17 9 58 18 93
19 41 2 69 8 81 19 12 11 36 16 77 16 37 0 68 6 80 15 10 8 37 15 60 15 22 0
49 7 60 15 10 8 37 15 59 15 22 0 58 9 80 20 22 11 51 20 65 20 14 0 34 7 44
15 11 8 36 15 57 15 20 0 42 7 49 15 7 8 27 15 44 15 17 0 40 7 50 15 11 8 31
15 45 15 14 0 40 9 56 20 17 11 42 20 56 20 15 0 32 7 39 15 7 8 27 15 45 15
18 0 38 7 45 15 7 8 25 15 40 15 15 0 33 6 39 14 6 7 29 16 51 20 22 3 40 11
40 16 0 5 12 12 28 16 26 6 68 22 125 50 16 8 34 14 41 14 7 0 23 9 36 20 13
11 34 20 47 20 12 0 23 4 23 9 0 5 10 13 23 16 40 11 288 132 342 166 17 10
37 21 45 25 8 3 22 10 30 15 8 5 29 16 45 24 30 15 48 25 83 45 9 6 31 17 47
25 17 7 45 25 64 39 19 14 38 26 42 26 8 0 101 59 134 85 10 8 23 15 28 15 5
0 26 14 47 30 21 16 41 30 45 30 3 0 27 16 52 35 25 19 50 35 55 35 5 0 19 9
31 21 12 12 45 36 72 54 28 18 63 44 78 59 15 14 30 26 33 26 7 0 64 41 94 68
14 12 43 35 65 50 22 15 65 50 95 78 30 29 89 79 130 111 101 80 510 491 625
628 51 61 107 125 125 144 17 18 39 45 48 60 23 36 32 47 68 84 17 18 48 57
69 87 21 30 44 59 52 63 7 4 13 15 13 22 0 8 4 15 10 15 5 0 12 11 16 25 3 14
12 29 19 33 15 9 85 109 85 122 0 5 5 10 10 10 6 0 15 10 21 23 20 44 38 71
53 79 9 5 16 16 16 25 0 8 14 32 30 53 17 21 30 43 30 49 0 6 16 31 35 57 19
25 35 51 35 59 0 7 7 15 15 19 8 3 15 13 15 22 0 9 13 33 28 53 15 20 33 47
40 61 6 14 16 32 21 40 5 8 12 22 15 30 3 8 10 22 15 30 5 8 12 22 15 30 4 8
17 33 30 55 14 22 36 64 51 92 14 29 30 55 36 58 5 4 9 14 9 24 0 10 7 24 15
31 8 7 15 19 15 27 0 8 9 26 20 40 11 14 20 34 20 44 0 11 4 19 10 19 5 0 14
18 20 40 6 21 15 42 20 45 6 3 10 16 10 29 0 13 9 31 20 41 11 10 20 28 20 40
0 13 7 28 15 35 8 7 15 22 15 34 0 11 7 30 15 40 8 11 15 30 15 42 0 12 7 27
15 34 8 7 15 21 15 32 0 10 10 38 22 61 43 83 48 95 48 114 0 10 7 27 15 37 8
11 15 32 15 47 0 14 7 32 15 39 8 7 15 27 15 45 0 18 9 42 20 55 11 13 20 37
20 55 0 18 7 38 15 45 9 7 15 29 15 52 0 25 5 41 15 44 10 4 15 20 15 44 0 21
7 43 15 50 8 7 15 29 15 50 0 22 8 48 20 63 11 14 20 40 20 59 0 18 7 42 15
52 8 11 15 36 15 55 0 20 7 45 15 55 8 11 15 36 15 56 0 19 7 46 16 58 9 13
18 51 21 85 3 34 12 71 19 82 8 11 14 45 14 76 0 38 5 61 15 69 11 9 15 33 15
89 1 51 5 82 15 95 9 12 15 42 15 73 0 30 7 68 16 86 10 19 19 66 22 122 2 49
9 95 14 102 5 6 12 72 15 145 3 73 10 139 15 145 6 7 14 115 19 240 4 126 13
264 19 308 14 93 6 445 -10 475 -6 11 -10 108 -10 237 0 177 -3 223 -15 239
-11 14 -14 49 -15 134 0 81 -4 122 -14 135 -8 12 -15 61 -19 125 -3 62 -12
120 -21 142 -9 21 -16 63 -16 95 -1 32 -7 69 -15 83 -8 14 -14 50 -15 81 0 32
-6 63 -15 75 -8 11 -14 42 -15 75 0 36 -5 61 -14 68 -8 6 -16 37 -18 71 -3 36
-11 66 -21 78 -10 11 -17 35 -17 59 0 24 -6 46 -15 53 -9 7 -15 29 -15 55 0
26 -6 48 -15 55 -9 8 -15 29 -15 56 0 26 -6 49 -17 59 -9 9 -18 39 -21 66 -2
27 -11 54 -18 60 -8 6 -14 26 -14 44 0 18 -7 38 -15 45 -8 7 -15 27 -15 45 0
18 -7 38 -15 45 -8 7 -15 26 -15 42 0 16 -9 41 -20 55 -11 14 -20 39 -20 55 0
16 -6 31 -15 34 -9 4 -15 19 -15 39 0 18 -7 38 -15 45 -8 7 -15 25 -15 40 0
15 -7 33 -15 40 -8 7 -15 23 -15 35 0 12 -9 34 -20 48 -11 14 -20 36 -20 50 0
14 -7 27 -15 31 -9 3 -15 18 -15 34 0 16 -7 35 -15 42 -8 7 -15 23 -15 35 0
12 -7 28 -15 35 -8 7 -15 20 -15 30 0 9 -9 29 -20 43 -11 14 -20 34 -20 45 0
11 -7 22 -15 26 -8 3 -15 17 -15 31 0 14 -7 28 -15 31 -8 4 -15 18 -15 33 0
15 -8 31 -20 39 -11 7 -20 23 -20 36 0 13 -7 26 -15 30 -8 3 -15 17 -15 31 0
14 -7 28 -15 31 -8 4 -15 17 -15 30 0 14 -7 27 -15 30 -8 4 -15 14 -15 24 0 9
-9 29 -20 43 -11 14 -20 28 -20 32 0 4 -13 27 -30 52 -16 24 -30 51 -30 59 0
8 -7 17 -15 20 -8 4 -15 16 -15 29 0 12 -7 29 -16 36 -9 7 -20 22 -25 34 -16
32 -36 66 -48 78 -6 6 -11 19 -11 29 0 9 -6 21 -13 25 -8 4 -26 29 -41 56 -16
26 -32 47 -37 47 -5 0 -9 6 -9 14 0 8 -16 35 -35 60 -19 26 -35 52 -35 59 0 8
-13 27 -30 43 -16 16 -30 36 -30 45 0 9 -15 32 -34 51 -18 19 -36 44 -40 55
-4 11 -27 43 -51 69 -25 27 -45 53 -45 58 0 9 -57 84 -76 101 -7 6 -28 34 -49
64 -20 29 -50 66 -66 82 -16 16 -29 31 -29 34 0 13 -48 72 -105 129 -33 34
-86 94 -117 133 -77 97 -506 526 -587 587 -35 27 -84 70 -110 96 -25 26 -76
70 -114 99 -37 28 -84 68 -104 88 -21 19 -55 47 -78 61 -22 13 -55 40 -74 58
-19 19 -40 34 -47 34 -7 0 -39 22 -71 50 -32 27 -63 50 -69 50 -6 0 -27 15
-46 34 -19 18 -44 36 -55 40 -11 4 -33 18 -48 31 -14 14 -44 34 -65 45 -21 11
-42 25 -45 30 -4 6 -17 15 -28 21 -33 14 -61 33 -70 47 -4 6 -19 12 -32 12
-14 0 -29 8 -35 20 -6 11 -18 20 -26 20 -9 0 -33 14 -54 30 -21 17 -44 30 -52
30 -7 0 -21 9 -31 20 -9 11 -24 20 -32 20 -8 0 -34 14 -57 30 -22 17 -47 30
-55 30 -7 0 -16 7 -19 15 -4 8 -17 15 -30 15 -14 0 -27 7 -30 15 -4 8 -17 15
-30 15 -13 0 -29 9 -36 20 -8 12 -24 20 -39 20 -15 0 -29 7 -33 15 -3 8 -17
15 -31 15 -14 0 -28 7 -31 15 -4 8 -17 15 -30 15 -12 0 -27 7 -32 16 -5 9 -22
18 -37 20 -16 1 -32 10 -37 18 -5 9 -19 16 -32 16 -13 0 -29 7 -36 15 -7 8
-23 15 -35 15 -12 0 -28 6 -34 14 -6 7 -25 16 -42 20 -17 3 -37 13 -45 21 -9
8 -26 15 -39 15 -12 0 -25 7 -29 15 -3 8 -18 15 -33 15 -15 0 -37 7 -47 15
-11 8 -30 15 -42 15 -12 0 -27 7 -34 15 -7 8 -22 15 -34 15 -11 0 -34 9 -51
20 -16 11 -42 20 -56 20 -15 0 -29 7 -33 15 -3 9 -18 15 -39 15 -19 0 -40 7
-47 15 -7 8 -26 15 -42 15 -16 0 -41 9 -55 20 -15 11 -39 19 -59 18 -19 -1
-42 6 -52 15 -10 10 -35 17 -54 17 -20 0 -41 7 -48 15 -7 8 -29 15 -50 15 -21
0 -43 7 -50 15 -7 8 -28 15 -46 15 -19 0 -51 9 -71 20 -21 11 -54 20 -73 20
-19 0 -44 7 -54 15 -11 8 -41 15 -66 15 -25 0 -55 7 -66 15 -11 8 -42 14 -75
15 -33 0 -63 6 -75 15 -11 8 -41 14 -71 15 -29 0 -75 9 -103 20 -32 13 -74 20
-114 20 -35 0 -80 7 -99 15 -20 8 -65 15 -99 15 -35 0 -81 7 -103 15 -23 8
-78 14 -130 15 -53 0 -111 7 -140 16 -43 14 -126 16 -615 16 -383 -1 -583 -4
-620 -12 -30 -6 -113 -15 -185 -19 -71 -4 -143 -13 -158 -19 -16 -7 -57 -12
-91 -12 -35 0 -83 -7 -106 -15 -23 -8 -68 -15 -100 -15 -32 0 -86 -9 -120 -20
-34 -11 -81 -20 -104 -20 -22 -1 -52 -7 -66 -15 -14 -8 -47 -15 -75 -15 -27 0
-61 -7 -75 -15 -14 -8 -44 -14 -68 -15 -23 0 -59 -7 -79 -15 -19 -8 -50 -15
-67 -15 -17 0 -51 -9 -75 -20 -24 -11 -60 -20 -80 -20 -20 0 -45 -7 -55 -15
-11 -8 -34 -15 -52 -15 -17 0 -37 -7 -44 -15 -8 -9 -30 -15 -57 -15 -24 0 -54
-7 -68 -16 -15 -10 -51 -16 -97 -18 -50 -1 -82 -7 -98 -19 -35 -24 -266 -25
-312 -1 -19 10 -65 18 -120 20 -58 2 -97 9 -111 19 -12 8 -40 15 -63 15 -25 0
-47 6 -54 15 -7 8 -27 15 -45 15 -18 0 -38 7 -45 15 -7 8 -19 15 -26 15 -16 0
-141 66 -165 86 -8 8 -21 14 -29 14 -7 0 -30 16 -51 35 -22 19 -45 35 -53 35
-23 0 -261 245 -311 319 -25 38 -45 74 -45 80 0 6 -4 11 -10 11 -5 0 -12 11
-16 25 -3 13 -12 29 -20 36 -8 6 -14 19 -14 29 0 10 -7 23 -15 30 -8 7 -15 20
-15 30 0 10 -7 23 -15 30 -8 7 -15 23 -15 35 0 12 -9 34 -20 48 -11 14 -20 36
-20 49 0 12 -7 32 -15 42 -8 11 -15 34 -15 51 0 17 -7 40 -15 51 -8 11 -14 42
-15 75 0 31 -7 76 -15 99 -22 61 -22 465 0 506 8 16 15 54 15 84 0 32 7 63 15
74 8 11 15 34 15 51 0 17 7 40 15 51 8 10 15 30 15 44 0 14 9 39 20 55 11 17
20 37 20 46 0 9 7 22 15 29 8 7 15 23 15 37 0 13 7 26 15 29 8 4 15 14 15 23
0 9 5 22 11 28 14 14 35 50 50 86 6 15 15 27 19 27 4 0 25 26 46 58 48 72 229
252 289 287 25 15 45 30 45 34 0 4 20 17 44 29 24 12 49 29 56 37 7 8 20 15
30 15 10 0 23 7 30 15 7 8 20 15 30 15 10 0 23 7 30 15 7 8 23 15 37 15 13 0
26 7 29 15 4 8 18 15 33 15 14 0 40 9 56 20 17 11 44 20 61 20 17 0 37 7 44
15 8 9 30 15 59 15 26 0 56 7 67 15 10 8 37 15 59 15 22 0 49 7 59 15 11 8 36
15 56 15 20 0 53 9 75 20 22 11 53 20 70 20 17 0 40 7 51 15 11 8 41 15 70 15
28 0 59 6 70 15 10 8 41 15 69 15 28 0 63 7 79 15 17 9 60 18 98 20 39 2 77
10 90 19 15 11 45 16 88 16 43 0 73 5 86 15 12 9 43 14 90 15 46 0 77 5 90 15
13 10 44 14 95 15 48 0 100 7 139 20 43 14 90 20 150 20 52 0 105 6 130 15 28
10 80 15 151 15 59 0 136 6 171 14 37 9 150 17 273 21 116 3 248 9 295 14 135
12 718 13 742 0z m-7527 -1105 c50 -9 119 -20 155 -24 36 -3 78 -12 93 -18 16
-7 43 -12 60 -12 18 0 41 -7 51 -15 11 -8 32 -15 46 -15 14 0 35 -7 46 -15 10
-8 28 -15 39 -15 11 0 34 -9 50 -20 17 -11 40 -20 51 -20 12 0 27 -7 34 -15 7
-8 23 -15 35 -15 12 0 28 -7 35 -15 7 -8 18 -15 25 -15 17 0 173 -78 180 -90
4 -6 15 -10 25 -10 10 0 23 -6 27 -14 4 -7 23 -21 42 -31 19 -9 57 -35 84 -56
27 -22 52 -39 56 -39 3 0 19 -12 34 -26 16 -15 61 -52 100 -84 97 -77 192
-171 258 -255 29 -38 69 -85 86 -105 18 -19 33 -40 33 -45 0 -6 13 -25 29 -42
15 -17 31 -37 35 -45 14 -28 32 -56 46 -73 19 -23 28 -39 95 -175 31 -63 63
-127 71 -142 8 -14 14 -33 14 -41 0 -8 7 -20 15 -27 8 -7 15 -19 15 -27 0 -8
6 -29 14 -46 26 -59 48 -132 55 -182 4 -27 12 -60 19 -72 7 -12 12 -40 12 -62
0 -22 5 -52 12 -68 26 -63 56 -507 38 -573 -5 -19 -13 -87 -19 -150 -12 -139
-33 -267 -49 -297 -7 -12 -12 -37 -12 -55 0 -19 -6 -42 -14 -53 -7 -11 -17
-35 -21 -53 -4 -18 -13 -45 -21 -60 -8 -15 -14 -37 -14 -48 0 -12 -7 -27 -15
-34 -8 -7 -15 -18 -15 -25 0 -12 -59 -141 -80 -175 -5 -8 -19 -35 -31 -60 -13
-25 -37 -65 -54 -90 -17 -25 -35 -52 -39 -60 -14 -31 -32 -57 -78 -117 -27
-34 -48 -64 -48 -68 0 -3 -12 -18 -27 -33 -16 -15 -53 -58 -83 -96 -74 -94
-156 -175 -230 -226 -19 -13 -46 -35 -60 -48 -23 -23 -136 -103 -181 -128 -10
-6 -27 -18 -37 -27 -10 -10 -22 -17 -26 -17 -5 0 -28 -13 -53 -30 -24 -16 -51
-30 -59 -30 -8 0 -17 -6 -20 -14 -3 -8 -18 -18 -34 -21 -16 -3 -34 -13 -41
-21 -6 -8 -22 -14 -34 -14 -12 0 -28 -7 -35 -15 -7 -8 -22 -15 -34 -15 -11 0
-30 -7 -40 -15 -11 -8 -32 -15 -47 -15 -14 0 -32 -7 -39 -15 -7 -8 -22 -15
-34 -15 -12 0 -38 -9 -59 -20 -20 -11 -49 -20 -64 -20 -16 0 -37 -7 -47 -15
-11 -8 -35 -15 -53 -15 -19 0 -50 -7 -70 -15 -19 -8 -59 -15 -87 -15 -28 0
-82 -7 -121 -15 -97 -21 -495 -21 -580 0 -33 8 -85 14 -116 15 -32 0 -63 6
-75 15 -10 8 -39 15 -64 15 -25 0 -56 7 -70 15 -14 8 -36 15 -50 15 -14 0 -43
9 -65 20 -22 11 -52 19 -66 20 -15 0 -32 7 -39 15 -7 8 -21 15 -32 15 -20 0
-32 5 -115 48 -23 12 -47 22 -53 22 -6 0 -18 7 -26 15 -9 8 -24 15 -34 15 -10
0 -21 4 -24 9 -3 4 -30 21 -61 36 -30 16 -55 32 -55 37 0 4 -8 8 -19 8 -10 0
-24 6 -30 14 -7 8 -31 24 -54 36 -23 12 -46 27 -52 34 -5 6 -28 23 -50 36 -22
14 -51 36 -65 50 -14 14 -57 51 -96 82 -40 31 -101 90 -137 130 -182 202 -207
232 -207 242 0 7 -13 26 -30 44 -16 18 -30 37 -30 41 0 5 -15 28 -33 52 -18
24 -36 51 -40 59 -4 8 -11 22 -16 30 -5 8 -12 22 -15 30 -3 8 -19 38 -35 65
-16 28 -30 57 -30 66 -1 9 -8 22 -16 29 -8 7 -15 20 -15 30 0 10 -7 23 -15 30
-8 7 -15 21 -15 32 0 11 -7 32 -15 46 -16 30 -44 104 -52 142 -3 14 -10 30
-15 37 -13 16 -36 118 -51 223 -7 47 -17 92 -22 100 -12 19 -27 219 -27 365
-1 154 17 396 30 421 6 11 14 45 18 75 4 30 13 68 21 86 7 18 13 43 13 57 0
13 7 37 15 52 8 16 15 38 15 50 0 11 7 29 15 40 8 10 15 28 15 39 0 11 9 38
20 60 11 22 19 45 20 52 0 6 7 24 14 40 8 15 17 35 20 43 3 8 10 22 14 30 5 8
17 31 27 50 42 83 67 125 89 154 13 17 26 41 30 54 4 12 11 22 16 22 5 0 12
10 16 23 6 21 109 162 143 197 9 9 48 54 88 100 39 47 108 117 152 155 45 39
107 94 138 123 31 28 60 52 66 52 5 0 26 13 46 28 31 25 145 97 191 121 8 4
24 13 35 20 11 6 34 18 52 26 17 8 34 19 38 25 3 5 17 10 29 10 13 0 29 7 36
15 7 8 20 15 30 15 10 0 23 7 30 15 7 8 25 15 40 15 15 0 33 7 40 15 7 8 28
17 49 20 20 4 48 13 63 21 14 8 39 14 55 14 15 1 39 7 53 15 14 8 41 15 60 15
19 0 46 7 60 15 14 8 44 14 67 15 23 0 54 5 70 11 75 31 530 39 678 13z"/>
</g>
</svg>
